# xmcd
#
# Track frame offsets: 
#        150
#        28596
#        38448
#        57081
#        79284
#        88513
#        108072
#        126773
#        147644
#        157532
#        171257
#        188869
#        211356
#        232792
#
# Disc length: 3943 seconds
#
# Revision: 0
# Processed by: cddbd v1.5.2PL0 Copyright (c) Steve Scherf et al.
# Submitted via: ExactAudioCopy v0.95b4
#
DISCID=a80f650e
DTITLE=Ryan Bingham - Mescalito
DYEAR=2007
DGENRE=Country
TTITLE0=Southside Of Heaven
TTITLE1=The Other Side
TTITLE2=Bread And Water
TTITLE3=Don't Wait For Me
TTITLE4=Borracho Station
TTITLE5=Sunshine
TTITLE6=Ghost Of Travelin' Jones
TTITLE7=Hard Times
TTITLE8=Dallor A Day
TTITLE9=Take It Easy Mama
TTITLE10=Long Way From Georgia
TTITLE11=Ever Wonder Why
TTITLE12=Sunrise
TTITLE13=For What It's Worth
EXTD=
EXTT0=
EXTT1=
EXTT2=
EXTT3=
EXTT4=
EXTT5=
EXTT6=
EXTT7=
EXTT8=
EXTT9=
EXTT10=
EXTT11=
EXTT12=
EXTT13=
PLAYORDER=
